<svg xmlns="http://www.w3.org/2000/svg" shape-rendering="geometricPrecision" text-rendering="geometricPrecision" image-rendering="optimizeQuality" fill-rule="evenodd" clip-rule="evenodd" viewBox="0 0 512 476.484"><path fill="#FFD337" d="M87.53 69.779c93.039-93.039 243.885-93.039 336.924 0 93.04 93.04 93.039 243.886 0 336.925-93.039 93.039-243.885 93.039-336.924 0-93.039-93.039-93.039-243.885 0-336.925z"/><path fill="#292D35" fill-rule="nonzero" d="M421 247.385c-.475 27.531-8.078 54.585-22.043 78.317-13.487 22.922-32.916 42.784-57.595 57.044l.014.024c-38.125 22.012-81.547 26.493-120.921 15.946-54.906-14.712-97.432-57.405-112.388-111.55a158.772 158.772 0 01-5.694-40.013c-.092-7.966 6.291-14.504 14.258-14.595l289.943.173c7.966 0 14.426 6.46 14.426 14.426v.228z"/><path fill="#565656" d="M406.575 247.157c-.851 49.189-26.733 96.721-72.441 123.11-69.3 40.011-157.913 16.267-197.923-53.033-12.806-22.181-19.071-46.34-19.411-70.25l289.775.173z"/><path fill="#292D35" fill-rule="nonzero" d="M371.035 357.285c-34.493 35.46-83.831 52.299-132.664 45.336-33.752-4.811-65.692-20.732-90.04-46.2-5.497-5.781-5.27-14.928.511-20.425 34.134-34.134 83.346-50.605 131.344-44.148 33.898 4.558 66.06 20.142 90.809 45.223 5.523 5.615 5.516 14.605.04 20.214z"/><path fill="#FB3939" d="M360.699 347.17a140.306 140.306 0 01-30.488 23.709c-57.116 32.976-127.779 21.196-171.412-24.444a142.574 142.574 0 0129.373-22.475c57.329-33.099 128.102-21.804 172.527 23.21z"/><path fill="#40270E" d="M292.956 171.93c34.402-26.777 67.264-26.377 98.595-.293 14.124 11.758 20.408 5.195 14.028-10.782-6.345-15.885-14.309-29.405-24.39-39.824-42.576-44.002-81.487-4.691-100.115 39.047-5.949 13.964-2.855 23.324 11.882 11.852zm-73.927 0c-34.404-26.777-67.264-26.377-98.595-.293-14.124 11.758-20.408 5.195-14.03-10.782 6.345-15.885 14.311-29.405 24.393-39.824 42.573-44.002 81.486-4.691 100.114 39.047 5.947 13.964 2.855 23.324-11.882 11.852z"/><path fill="#4BA9FF" d="M110.238 173.731l-15.855 90.345c-5.305 26.514-19.385 39.704-35.186 43.653-11.454 2.862-23.517.595-33.682-5.129-9.95-5.608-18.258-14.659-22.458-25.503-6.132-15.832-3.823-34.973 14.152-52.302l.558-.51 98.149-82.897-5.678 32.343zM419.989 260.127l-24.063-118.802 97.787 78.317.559.513c17.973 16.443 20.716 35.039 15.146 50.617-3.804 10.637-11.681 19.657-21.261 25.389-9.763 5.841-21.47 8.357-32.708 5.86-15.511-3.453-29.576-15.937-35.413-41.616l-.047-.278z"/></svg>